<svg width="24" height="24" viewBox="0 0 24 24" fill="none" xmlns="http://www.w3.org/2000/svg">
<g id="Icon/Message">
<path id="Shape" fill-rule="evenodd" clip-rule="evenodd" d="M2.4 2.66667H21.6C22.9255 2.66667 24 3.74118 24 5.06667V19.4667C24 20.7922 22.9255 21.8667 21.6 21.8667H2.4C1.068 21.8667 0 20.7867 0 19.4667V5.06667C0 3.73467 1.068 2.66667 2.4 2.66667ZM12 11.0667L21.6 5.06667H2.40002L12 11.0667ZM2.40002 19.4667H21.6V7.91067L12 13.8987L2.40002 7.91067V19.4667Z" fill="white"/>
<mask id="mask0_585_9577" style="mask-type:luminance" maskUnits="userSpaceOnUse" x="0" y="2" width="24" height="20">
<path id="Shape_2" fill-rule="evenodd" clip-rule="evenodd" d="M2.4 2.66667H21.6C22.9255 2.66667 24 3.74118 24 5.06667V19.4667C24 20.7922 22.9255 21.8667 21.6 21.8667H2.4C1.068 21.8667 0 20.7867 0 19.4667V5.06667C0 3.73467 1.068 2.66667 2.4 2.66667ZM12 11.0667L21.6 5.06667H2.40002L12 11.0667ZM2.40002 19.4667H21.6V7.91067L12 13.8987L2.40002 7.91067V19.4667Z" fill="white"/>
</mask>
<g mask="url(#mask0_585_9577)">
</g>
</g>
</svg>
