<svg width="18" height="18" viewBox="0 0 18 18" fill="none" xmlns="http://www.w3.org/2000/svg">
<g id="Icon/Heart/Regular">
<path id="Shape" fill-rule="evenodd" clip-rule="evenodd" d="M8.68999 14.1394L8.59999 14.2294L8.50099 14.1394C4.22599 10.2604 1.39999 7.69543 1.39999 5.09443C1.39999 3.29443 2.74999 1.94443 4.54999 1.94443C5.93599 1.94443 7.28599 2.84443 7.76299 4.06843H9.43699C9.91399 2.84443 11.264 1.94443 12.65 1.94443C14.45 1.94443 15.8 3.29443 15.8 5.09443C15.8 7.69543 12.974 10.2604 8.68999 14.1394ZM13.05 0.544434C11.484 0.544434 9.981 1.27343 9 2.41643C8.019 1.27343 6.516 0.544434 4.95 0.544434C2.178 0.544434 0 2.71343 0 5.49443C0 8.88743 3.06 11.6684 7.695 15.8714L9 17.0594L10.305 15.8714C14.94 11.6684 18 8.88743 18 5.49443C18 2.71343 15.822 0.544434 13.05 0.544434Z" fill="#8F92A1"/>
<mask id="mask0_263_2439" style="mask-type:luminance" maskUnits="userSpaceOnUse" x="0" y="0" width="18" height="18">
<path id="Shape_2" fill-rule="evenodd" clip-rule="evenodd" d="M8.68999 14.1394L8.59999 14.2294L8.50099 14.1394C4.22599 10.2604 1.39999 7.69543 1.39999 5.09443C1.39999 3.29443 2.74999 1.94443 4.54999 1.94443C5.93599 1.94443 7.28599 2.84443 7.76299 4.06843H9.43699C9.91399 2.84443 11.264 1.94443 12.65 1.94443C14.45 1.94443 15.8 3.29443 15.8 5.09443C15.8 7.69543 12.974 10.2604 8.68999 14.1394ZM13.05 0.544434C11.484 0.544434 9.981 1.27343 9 2.41643C8.019 1.27343 6.516 0.544434 4.95 0.544434C2.178 0.544434 0 2.71343 0 5.49443C0 8.88743 3.06 11.6684 7.695 15.8714L9 17.0594L10.305 15.8714C14.94 11.6684 18 8.88743 18 5.49443C18 2.71343 15.822 0.544434 13.05 0.544434Z" fill="white"/>
</mask>
<g mask="url(#mask0_263_2439)">
</g>
</g>
</svg>
